<?xml version="1.0" encoding="UTF-8"?>
<svg version="1.1" xmlns="http://www.w3.org/2000/svg" width="500" height="500">
<path d="M0 0 C7.90075262 6.56251439 11.06133438 12.79882752 12.453125 22.93359375 C14.58694771 50.8349422 3.24834888 80.80272745 -14.58203125 102.03515625 C-15.77144707 103.33852807 -16.98587762 104.62035379 -18.2421875 105.859375 C-18.58765625 106.33632813 -18.933125 106.81328125 -19.2890625 107.3046875 C-17.23751549 113.45932854 -8.11805876 116.78688333 -2.5078125 119.796875 C22.42818522 131.88933173 51.25426686 132.13771689 77.16796875 123.28222656 C85.53001817 120.21036916 93.1408063 115.96504952 100.7109375 111.3046875 C99.1391929 106.51192371 97.40772842 101.79890063 95.61328125 97.0859375 C91.63500437 84.82388928 92.45583442 69.99651447 97.7109375 58.3046875 C102.24521849 49.8469613 108.02352339 45.02475512 116.5859375 40.9296875 C124.85364533 39.27614593 131.5948945 39.63682443 138.7109375 44.3046875 C139.5771875 44.8409375 140.4434375 45.3771875 141.3359375 45.9296875 C148.9399174 53.5336674 151.06442411 61.49788237 151.09155273 71.89404297 C150.77791014 85.96855751 142.33259141 99.25405089 133.0859375 109.4921875 C132.3021875 110.4203125 131.5184375 111.3484375 130.7109375 112.3046875 C132.15358152 116.63261956 134.78459363 117.6052526 138.64453125 119.8125 C157.07718044 128.78227323 176.93536695 127.22445693 195.8203125 120.78125 C210.40283998 115.46215434 222.58094462 105.89613234 233.7109375 95.3046875 C234.21915039 94.82370605 234.72736328 94.34272461 235.25097656 93.84716797 C241.98698873 87.43317202 248.14681182 80.87393302 253.640625 73.35449219 C256.53852861 69.39089195 256.53852861 69.39089195 258.7109375 68.3046875 C263.95862081 67.96057712 267.52782922 67.7367422 271.7109375 71.3046875 C273.33891669 74.0426525 273.70126209 75.87896936 273.7734375 79.0546875 C272.15317483 84.01078507 269.06133522 87.36539735 265.7109375 91.3046875 C264.76024748 92.44126475 263.8097381 93.57799312 262.859375 94.71484375 C241.9918199 119.51595304 213.36214849 143.25992262 179.7109375 146.3046875 C157.80303838 147.64265751 137.17309838 145.81684469 119.6484375 131.3046875 C118.99746094 130.7065625 118.34648437 130.1084375 117.67578125 129.4921875 C115.74072922 128.06943612 115.74072922 128.06943612 113.24609375 128.44921875 C110.58453725 129.34734028 108.56113069 130.4589279 106.2109375 131.9921875 C79.16508717 148.69110247 43.54717903 154.6618178 12.40234375 147.4140625 C-3.13218562 142.74548436 -16.88786543 136.91148822 -29.87890625 127.0390625 C-31.96859932 125.53529633 -33.95257086 124.36722198 -36.2890625 123.3046875 C-37.11083984 123.94083984 -37.11083984 123.94083984 -37.94921875 124.58984375 C-55.35212423 137.46516407 -77.3424299 144.67394149 -99.046875 141.80859375 C-115.63841552 138.84222741 -127.49163824 131.22468713 -137.31640625 117.44921875 C-148.66212849 99.3634635 -150.37187355 77.85922657 -146.2890625 57.3046875 C-136.80837404 18.23036918 -136.80837404 18.23036918 -126.9140625 9.1171875 C-123.24436084 7.98132746 -120.97841599 8.2505865 -117.2890625 9.3046875 C-114.46795961 11.51250715 -112.70963511 13.12791292 -111.49609375 16.5234375 C-111.21617326 20.28387886 -112.44163579 23.14739954 -113.8515625 26.5546875 C-114.41292284 27.98119539 -114.97276915 29.40829983 -115.53125 30.8359375 C-115.82225586 31.57070312 -116.11326172 32.30546875 -116.41308594 33.0625 C-124.86329591 54.69202297 -131.73656258 76.84700578 -123.1015625 99.6171875 C-119.19670509 108.29719311 -112.82196063 115.73708253 -103.82421875 119.2734375 C-87.14295679 124.4429534 -71.18058032 119.7608129 -56.1796875 112.0859375 C-53.43987927 110.39762324 -51.43802256 108.68314815 -49.2890625 106.3046875 C-49.73636719 105.60085938 -50.18367188 104.89703125 -50.64453125 104.171875 C-55.3398402 96.50320409 -58.66023629 88.92960045 -61.2890625 80.3046875 C-61.65773438 79.139375 -62.02640625 77.9740625 -62.40625 76.7734375 C-63.88975165 70.63937515 -63.61757848 64.32654635 -63.6015625 58.0546875 C-63.61767578 56.80816406 -63.63378906 55.56164062 -63.65039062 54.27734375 C-63.65622325 43.11370293 -61.80348161 33.13296912 -56.6640625 23.1796875 C-56.31778809 22.50301025 -55.97151367 21.82633301 -55.61474609 21.12915039 C-49.7229659 10.07711976 -40.50252289 0.59788936 -28.4765625 -3.5703125 C-27.0855711 -3.96289195 -25.69023885 -4.340798 -24.2890625 -4.6953125 C-23.4846875 -4.9428125 -22.6803125 -5.1903125 -21.8515625 -5.4453125 C-13.90572255 -6.2205164 -6.47853766 -4.79809786 0 0 Z M-33.43359375 23.1171875 C-42.49441197 33.79941529 -45.30280539 48.64680602 -44.2890625 62.3046875 C-42.76641335 73.20301885 -40.33828161 84.55463936 -33.2890625 93.3046875 C-17.056796 75.85500101 -6.56468651 50.29267706 -7.2890625 26.3046875 C-8.03871183 21.84980419 -9.11612508 18.55329831 -12.2265625 15.2421875 C-19.57638471 11.90135922 -28.20502423 18.27475984 -33.43359375 23.1171875 Z M115.7109375 67.3046875 C111.82373413 76.77317948 112.87198811 87.02722647 116.7109375 96.3046875 C117.3709375 96.3046875 118.0309375 96.3046875 118.7109375 96.3046875 C125.5652723 88.34537177 131.75138193 78.26716255 131.1328125 67.4765625 C130.48633586 64.14840501 129.32730202 62.42606414 126.7109375 60.3046875 C121.31120518 58.59950887 118.33764747 63.1296822 115.7109375 67.3046875 Z " fill="#18CEEC" transform="translate(187.2890625,177.6953125)"/>
<path d="M0 0 C10.69655811 0.70340178 17.74386219 3.93105653 25 12 C26.26171875 14.7578125 26.26171875 14.7578125 27 17 C26.319375 16.5875 25.63875 16.175 24.9375 15.75 C21.59390942 14.8963173 21.12531043 15.13745477 18.25 16.75 C14.98821489 18.62287638 14.98821489 18.62287638 14 21 C13.34 21 12.68 21 12 21 C12 25.62 12 30.24 12 35 C9.83349517 31.75024275 8.961012 28.86632685 7.87890625 25.15625 C6.93281696 22.83517761 5.87589868 21.63030749 4 20 C5.32 20.33 6.64 20.66 8 21 C8.33 20.01 8.66 19.02 9 18 C10.55859375 16.90234375 10.55859375 16.90234375 12.4375 15.9375 C14.74149765 14.73980602 16.13152817 13.86847183 18 12 C18 10.68 18 9.36 18 8 C12.19958122 4.13305415 6.86784355 2.94386277 0 2 C0 1.34 0 0.68 0 0 Z " fill="#33C6E2" transform="translate(169,172)"/>
<path d="M0 0 C2.98370907 2.33507666 4.63311617 3.9971842 5.9375 7.5625 C6 10 6 10 4 14 C3.505 9.05 3.505 9.05 3 4 C1.1128125 3.938125 1.1128125 3.938125 -0.8125 3.875 C-1.52019531 3.85179687 -2.22789063 3.82859375 -2.95703125 3.8046875 C-5.31359719 3.86745538 -5.31359719 3.86745538 -8 6 C-8 5.01 -8 4.02 -8 3 C-8.66 3 -9.32 3 -10 3 C-10.061875 3.556875 -10.12375 4.11375 -10.1875 4.6875 C-11.33373872 7.94987173 -13.49390197 9.68667874 -16 12 C-14.81118917 6.48824068 -13.4327425 3.76783112 -9 0 C-5.77509551 -1.61245225 -3.43772273 -0.81573082 0 0 Z " fill="#2DC3D9" transform="translate(70,187)"/>
<path d="M0 0 C1.18945824 3.42769135 0.82583152 5.2553778 -0.51171875 8.58984375 C-0.85783203 9.45673828 -1.20394531 10.32363281 -1.56054688 11.21679688 C-2.11838867 12.56354492 -2.11838867 12.56354492 -2.6875 13.9375 C-3.04005859 14.83146484 -3.39261719 15.72542969 -3.75585938 16.64648438 C-5.65889228 21.33274639 -7.51867487 25.23576809 -11 29 C-11 27.68 -11 26.36 -11 25 C-10.34 25 -9.68 25 -9 25 C-9.2475 24.0925 -9.495 23.185 -9.75 22.25 C-10 19 -10 19 -8.0625 16.625 C-7.381875 16.08875 -6.70125 15.5525 -6 15 C-6.66 15 -7.32 15 -8 15 C-8.125 12.625 -8.125 12.625 -8 10 C-7.34 9.34 -6.68 8.68 -6 8 C-4.68 8 -3.36 8 -2 8 C-1.855625 6.865625 -1.71125 5.73125 -1.5625 4.5625 C-1 1 -1 1 0 0 Z " fill="#27C6E0" transform="translate(194,234)"/>
<path d="M0 0 C1.670625 0.061875 1.670625 0.061875 3.375 0.125 C-5.41940609 8.91940609 -23.28840742 9.2668117 -34.95483398 9.32714844 C-40.17933771 9.30593505 -45.40174527 9.24072943 -50.625 9.125 C-50.625 8.795 -50.625 8.465 -50.625 8.125 C-49.90320557 8.09994385 -49.18141113 8.0748877 -48.43774414 8.04907227 C-45.187465 7.93348698 -41.93750312 7.81059226 -38.6875 7.6875 C-37.55119141 7.64818359 -36.41488281 7.60886719 -35.24414062 7.56835938 C-34.16455078 7.52646484 -33.08496094 7.48457031 -31.97265625 7.44140625 C-30.97242432 7.40474854 -29.97219238 7.36809082 -28.94165039 7.33032227 C-26.66430812 7.37828159 -26.66430812 7.37828159 -25.625 6.125 C-23.30682911 5.80402249 -20.98720643 5.61279044 -18.65625 5.40625 C-16.63319407 5.33434163 -16.63319407 5.33434163 -15.625 4.125 C-13.08399908 3.59170351 -10.53165979 3.16081657 -7.97265625 2.72265625 C-4.2359088 1.77137112 -4.24954099 0.1465359 0 0 Z " fill="#3CC6DF" transform="translate(391.625,314.875)"/>
<path d="M0 0 C0.33 0 0.66 0 1 0 C1.33 2.31 1.66 4.62 2 7 C1.01 7.33 0.02 7.66 -1 8 C-0.67 17.24 -0.34 26.48 0 36 C-4.69097225 28.96354162 -3.63816938 18.25089979 -3 10 C-2.29760864 6.5166289 -1.35505251 3.28277601 0 0 Z " fill="#3EC0DA" transform="translate(284,239)"/>
<path d="M0 0 C-0.33 0.66 -0.66 1.32 -1 2 C-0.36191406 2.04898437 0.27617188 2.09796875 0.93359375 2.1484375 C1.75988281 2.22320312 2.58617188 2.29796875 3.4375 2.375 C4.26121094 2.44460938 5.08492187 2.51421875 5.93359375 2.5859375 C6.61550781 2.72257812 7.29742187 2.85921875 8 3 C8.33 3.66 8.66 4.32 9 5 C0.47055948 5.54187034 -7.77767977 4.24058226 -16 2 C-16.66 1.34 -17.32 0.68 -18 0 C-16.73542969 0.01740234 -16.73542969 0.01740234 -15.4453125 0.03515625 C-14.34960938 0.04417969 -13.25390625 0.05320312 -12.125 0.0625 C-10.48917969 0.07990234 -10.48917969 0.07990234 -8.8203125 0.09765625 C-0.62086093 -0.18625828 -0.62086093 -0.18625828 0 0 Z " fill="#37D0E9" transform="translate(93,315)"/>
<path d="M0 0 C0.66 0 1.32 0 2 0 C0.24871763 5.15245709 -2.80093585 8.53346506 -6.3203125 12.59765625 C-8.38201005 15.05781077 -8.38201005 15.05781077 -8 19 C-6.02754217 20.80035402 -6.02754217 20.80035402 -3.5 22.25 C-2.6646875 22.77078125 -1.829375 23.2915625 -0.96875 23.828125 C-0.3190625 24.21484375 0.330625 24.6015625 1 25 C0.34 25.33 -0.32 25.66 -1 26 C-2.49076829 25.12360894 -3.96733869 24.22303672 -5.4375 23.3125 C-6.26121094 22.81363281 -7.08492187 22.31476563 -7.93359375 21.80078125 C-10 20 -10 20 -10.90234375 17.4140625 C-10.93457031 16.61742187 -10.96679688 15.82078125 -11 15 C-9.68870078 13.64499081 -8.35308313 12.31328657 -7 11 C-6.855625 9.96875 -6.71125 8.9375 -6.5625 7.875 C-6.376875 6.92625 -6.19125 5.9775 -6 5 C-3.5 3.8125 -3.5 3.8125 -1 3 C-0.67 2.01 -0.34 1.02 0 0 Z " fill="#3CBBCF" transform="translate(177,269)"/>
<path d="M0 0 C0.66 0 1.32 0 2 0 C2.66 5.28 3.32 10.56 4 16 C2.68 16 1.36 16 0 16 C-0.12375 16.70125 -0.2475 17.4025 -0.375 18.125 C-1.03838345 21.17656387 -1.97211955 24.05340938 -3 27 C-4.28116314 23.38711995 -3.67900975 21.06851523 -2.625 17.4375 C-1.0586245 11.62259919 -0.34260731 6.0015349 0 0 Z " fill="#33C4DC" transform="translate(179,208)"/>
<path d="M0 0 C0 0.66 0 1.32 0 2 C-1.65 2.33 -3.3 2.66 -5 3 C-5.66 4.98 -6.32 6.96 -7 9 C-8.32 8.67 -9.64 8.34 -11 8 C-11.99 9.485 -11.99 9.485 -13 11 C-13.66 11 -14.32 11 -15 11 C-15.33 10.34 -15.66 9.68 -16 9 C-16.99 9.495 -16.99 9.495 -18 10 C-20.125 9.0625 -20.125 9.0625 -22 8 C-20.33710938 7.38511719 -20.33710938 7.38511719 -18.640625 6.7578125 C-17.17703971 6.21365899 -15.71350045 5.66938165 -14.25 5.125 C-13.52039063 4.85558594 -12.79078125 4.58617187 -12.0390625 4.30859375 C-9.16136557 3.23599762 -6.35831928 2.17915964 -3.609375 0.8046875 C-2 0 -2 0 0 0 Z " fill="#36CCE3" transform="translate(397,293)"/>
<path d="M0 0 C1.32 0 2.64 0 4 0 C4 0.66 4 1.32 4 2 C5.65 1.67 7.3 1.34 9 1 C9.33 1.99 9.66 2.98 10 4 C10.99 4.66 11.98 5.32 13 6 C13 6.66 13 7.32 13 8 C13.721875 8.103125 14.44375 8.20625 15.1875 8.3125 C18.24491993 9.05986932 20.38329635 10.28045189 23 12 C22.01 12.495 22.01 12.495 21 13 C18.69249743 12.03629594 16.52714017 11.0215705 14.3125 9.875 C13.6819873 9.5538623 13.05147461 9.23272461 12.40185547 8.90185547 C7.9699277 6.60403087 3.89040929 4.14937895 0 1 C0 0.67 0 0.34 0 0 Z " fill="#3BC3D8" transform="translate(305,307)"/>
<path d="M0 0 C1.65 0.33 3.3 0.66 5 1 C1.28587284 5.8747919 -2.77180471 9.74536187 -8 13 C-8.66 13 -9.32 13 -10 13 C-10 12.34 -10 11.68 -10 11 C-9.34 11 -8.68 11 -8 11 C-8 9.35 -8 7.7 -8 6 C-6.35 6.33 -4.7 6.66 -3 7 C-3 6.01 -3 5.02 -3 4 C-2.34 4 -1.68 4 -1 4 C-0.67 2.68 -0.34 1.36 0 0 Z " fill="#2CC7DF" transform="translate(426,290)"/>
<path d="M0 0 C2 3 2 3 2 6 C2.66 6.33 3.32 6.66 4 7 C3.52434234 9.45906037 3.04463948 11.91720993 2.5625 14.375 C2.42779297 15.07367188 2.29308594 15.77234375 2.15429688 16.4921875 C1.11328125 21.7734375 1.11328125 21.7734375 0 24 C-0.66 24 -1.32 24 -2 24 C-1.67 23.05125 -1.34 22.1025 -1 21.125 C0.30229743 16.52479828 0.73764283 11.73519105 0 7 C-1.74463087 4.09060113 -2.37164514 3.17535485 -5.6875 2.25 C-6.8321875 2.12625 -6.8321875 2.12625 -8 2 C-8 1.67 -8 1.34 -8 1 C-2.25 0 -2.25 0 0 0 Z " fill="#35C7DD" transform="translate(317,236)"/>
<path d="M0 0 C0.33 0 0.66 0 1 0 C2.04821429 5.24107143 2.04821429 5.24107143 2 8 C0.71182656 9.37701298 -0.62804426 10.70644173 -2 12 C-2.70881662 14.22955045 -3.13682211 16.4388605 -3.5625 18.73828125 C-4.11413647 21.59004476 -5.01986573 24.26962595 -6 27 C-6.66 27 -7.32 27 -8 27 C-7.39795395 20.81842856 -5.55317819 15.38166239 -3.4375 9.5625 C-3.10814453 8.64017578 -2.77878906 7.71785156 -2.43945312 6.76757812 C-1.63217353 4.5095352 -0.81891273 2.25384435 0 0 Z " fill="#35C2D9" transform="translate(51,204)"/>
<path d="M0 0 C1.66666667 1.66666667 3.33333333 3.33333333 5 5 C5.61875 5.515625 6.2375 6.03125 6.875 6.5625 C8 8 8 8 7.9375 10 C6.72876414 12.5786365 5.47396421 13.61749059 3 15 C2.01 14.67 1.02 14.34 0 14 C0.99 13.01 1.98 12.02 3 11 C2.690625 10.113125 2.38125 9.22625 2.0625 8.3125 C1.1709329 5.53290845 0.50622993 2.86863625 0 0 Z " fill="#2CC6DD" transform="translate(285,278)"/>
<path d="M0 0 C0.515625 0.680625 1.03125 1.36125 1.5625 2.0625 C4.50219294 5.60520688 7.7139218 8.7825406 11 12 C12.0011396 12.9988591 13.0015186 13.9984837 14 15 C11.5 14 11.5 14 9 13 C8.13375 12.690625 7.2675 12.38125 6.375 12.0625 C3.79354746 10.90763965 2.56920115 10.35380173 1 8 C0.45340102 5.32007298 0.2243209 2.73671493 0 0 Z " fill="#33C2DE" transform="translate(65,281)"/>
<path d="M0 0 C0.33 0 0.66 0 1 0 C0.67 2.97 0.34 5.94 0 9 C0.66 9.33 1.32 9.66 2 10 C1.1028125 10.2784375 1.1028125 10.2784375 0.1875 10.5625 C-2.99799246 12.65582362 -3.55795606 15.55163407 -5 19 C-5.99 19.33 -6.98 19.66 -8 20 C-6.54884678 15.42111848 -4.79418096 11.02350565 -2.875 6.625 C-2.59785156 5.98433594 -2.32070312 5.34367188 -2.03515625 4.68359375 C-1.35899615 3.12143075 -0.67981293 1.56057685 0 0 Z " fill="#34C2DB" transform="translate(174,235)"/>
<path d="M0 0 C0.33 0.66 0.66 1.32 1 2 C-1.39509038 5.9918173 -3.62355085 6.71280907 -8 8 C-9.546875 8.8353125 -9.546875 8.8353125 -11.125 9.6875 C-14.27119974 11.12380858 -14.87785944 10.99828099 -18 10 C-17.03578125 9.52949219 -16.0715625 9.05898438 -15.078125 8.57421875 C-13.80197704 7.94552821 -12.52594126 7.31660993 -11.25 6.6875 C-10.61578125 6.37876953 -9.9815625 6.07003906 -9.328125 5.75195312 C-5.96852088 4.089649 -2.90141079 2.38120835 0 0 Z " fill="#39C4D5" transform="translate(138,285)"/>
<path d="M0 0 C2.475 0.495 2.475 0.495 5 1 C5.25 3.75 5.25 3.75 5 7 C3 9.375 3 9.375 1 11 C0.67 7.37 0.34 3.74 0 0 Z " fill="#14CBEA" transform="translate(178,258)"/>
<path d="M0 0 C0.33 0 0.66 0 1 0 C0.58169634 7.22124213 0.04538889 14.04567778 -2 21 C-2.33 21 -2.66 21 -3 21 C-3.31806054 13.2723068 -3.32270836 7.06075526 0 0 Z " fill="#32C5DF" transform="translate(198,213)"/>
<path d="M0 0 C-2.16099373 2.16099373 -3.5210418 2.71563716 -6.375 3.6875 C-7.14585938 3.95949219 -7.91671875 4.23148437 -8.7109375 4.51171875 C-11.20055308 5.04278009 -12.61553018 4.81115526 -15 4 C-11.3460697 -1.5678938 -5.94143168 -0.36877852 0 0 Z " fill="#3CC9DD" transform="translate(131,312)"/>
<path d="M0 0 C0.66 0.33 1.32 0.66 2 1 C1.01 1.33 0.02 1.66 -1 2 C-1.33 2.99 -1.66 3.98 -2 5 C-3.32 5 -4.64 5 -6 5 C-5.67 5.99 -5.34 6.98 -5 8 C-7.97 8 -10.94 8 -14 8 C-11.19921966 6.13281311 -8.37274624 4.45795762 -5.4375 2.8125 C-4.46683594 2.26207031 -3.49617188 1.71164062 -2.49609375 1.14453125 C-1.67238281 0.76683594 -0.84867187 0.38914062 0 0 Z " fill="#35C4DA" transform="translate(283,292)"/>
<path d="M0 0 C0.66 0 1.32 0 2 0 C1.34 7.26 0.68 14.52 0 22 C-0.33 22 -0.66 22 -1 22 C-1.19466332 20.20909747 -1.38051213 18.41723495 -1.5625 16.625 C-1.66691406 15.62726563 -1.77132812 14.62953125 -1.87890625 13.6015625 C-2 11 -2 11 -1 9 C-0.77532169 7.46331135 -0.59203195 5.92031946 -0.4375 4.375 C-0.35371094 3.55773437 -0.26992187 2.74046875 -0.18359375 1.8984375 C-0.12300781 1.27195313 -0.06242188 0.64546875 0 0 Z " fill="#42C3DB" transform="translate(143,218)"/>
<path d="M0 0 C0.33 0.66 0.66 1.32 1 2 C-0.9428261 6.74913047 -3.65005404 10.19735864 -7 14 C-7.33 13.34 -7.66 12.68 -8 12 C-6.85546875 9.6875 -6.85546875 9.6875 -5.1875 7 C-4.64480469 6.113125 -4.10210937 5.22625 -3.54296875 4.3125 C-2 2 -2 2 0 0 Z " fill="#35C3D8" transform="translate(139,188)"/>
<path d="M0 0 C0.66 0.33 1.32 0.66 2 1 C-0.97 3.97 -3.94 6.94 -7 10 C-9 9 -9 9 -10 6 C-9.01 6 -8.02 6 -7 6 C-6.67 5.34 -6.34 4.68 -6 4 C-5.34 4 -4.68 4 -4 4 C-4 3.34 -4 2.68 -4 2 C-2.125 0.9375 -2.125 0.9375 0 0 Z " fill="#31C9D8" transform="translate(440,281)"/>
<path d="M0 0 C0 3.21534057 -0.26476072 4.35582586 -2 7 C-4.375 8.8125 -4.375 8.8125 -7 10 C-8.32 9.67 -9.64 9.34 -11 9 C-7.37 6.03 -3.74 3.06 0 0 Z " fill="#35C4DC" transform="translate(417,277)"/>
<path d="M0 0 C0.33 0.66 0.66 1.32 1 2 C-0.21484375 4.8203125 -0.21484375 4.8203125 -1.9375 8.125 C-2.50339844 9.22070312 -3.06929687 10.31640625 -3.65234375 11.4453125 C-4.09707031 12.28835938 -4.54179687 13.13140625 -5 14 C-5.33 12.68 -5.66 11.36 -6 10 C-5.34 10 -4.68 10 -4 10 C-4.33 8.02 -4.66 6.04 -5 4 C-3.35 2.68 -1.7 1.36 0 0 Z " fill="#34C6DC" transform="translate(189,249)"/>
<path d="M0 0 C0.66 0 1.32 0 2 0 C0.5129879 4.59621922 -1.79812128 7.46972347 -5 11 C-5.33 11 -5.66 11 -6 11 C-6 9.02 -6 7.04 -6 5 C-5.195625 4.731875 -4.39125 4.46375 -3.5625 4.1875 C-2.716875 3.795625 -1.87125 3.40375 -1 3 C-0.67 2.01 -0.34 1.02 0 0 Z " fill="#30C4D9" transform="translate(177,269)"/>
<path d="M0 0 C5.39449293 -0.27429625 8.51925805 -0.36055646 13 3 C12.34 4.32 11.68 5.64 11 7 C11 5.68 11 4.36 11 3 C7.37114676 2.84850702 7.37114676 2.84850702 4 4 C4 3.01 4 2.02 4 1 C2.68 0.67 1.36 0.34 0 0 Z " fill="#30C0D7" transform="translate(446,246)"/>
<path d="M0 0 C3.25543229 0.34879632 4.01873107 1.02133261 6.25 3.5625 C6.8275 4.366875 7.405 5.17125 8 6 C7.67 6.66 7.34 7.32 7 8 C5.35 6.68 3.7 5.36 2 4 C1.01 4.495 1.01 4.495 0 5 C0 3.35 0 1.7 0 0 Z " fill="#31C9DC" transform="translate(188,181)"/>
<path d="M0 0 C9.40789474 2.99342105 9.40789474 2.99342105 11.25 6.125 C11.4975 6.74375 11.745 7.3625 12 8 C7.44328408 6.48109469 3.68276708 4.04597738 0 1 C0 0.67 0 0.34 0 0 Z " fill="#39C4E3" transform="translate(159,305)"/>
<path d="M0 0 C1 2 1 2 0.375 4.3125 C-1.26624041 7.52037899 -3.36337053 9.57152549 -6 12 C-6 8.36804504 -5.04546845 7.25286089 -3 4.3125 C-2.443125 3.50425781 -1.88625 2.69601562 -1.3125 1.86328125 C-0.879375 1.24839844 -0.44625 0.63351563 0 0 Z " fill="#37C6D9" transform="translate(165,255)"/>
<path d="M0 0 C-0.99 0.33 -1.98 0.66 -3 1 C-3 1.66 -3 2.32 -3 3 C-6.63 3.33 -10.26 3.66 -14 4 C-10.28835785 0.28835785 -5.09745779 -0.30893684 0 0 Z " fill="#38C2D5" transform="translate(168,173)"/>
<path d="M0 0 C2.35448165 2.55068845 2.98327924 3.71017358 3.1875 7.25 C3.125625 8.1575 3.06375 9.065 3 10 C0.11192273 7.61419704 -0.61954948 5.70939253 -1 2 C-0.67 1.34 -0.34 0.68 0 0 Z " fill="#2BC4DD" transform="translate(132,267)"/>
<path d="M0 0 C2 1 2 1 3.125 3.625 C4.05654649 7.21810788 4.14783375 10.30415624 4 14 C1.01520806 9.52281208 0 5.36175907 0 0 Z " fill="#39C4D7" transform="translate(125,250)"/>
<path d="M0 0 C1.5625 1.1875 1.5625 1.1875 3 3 C2.6875 5.6875 2.6875 5.6875 2 8 C1.34 8 0.68 8 0 8 C-0.38063221 5.6739143 -0.71269945 3.33944736 -1 1 C-0.67 0.67 -0.34 0.34 0 0 Z " fill="#1FD2F3" transform="translate(329,228)"/>
<path d="M0 0 C1.98 0.66 3.96 1.32 6 2 C5.01 3.485 5.01 3.485 4 5 C4.33 5.66 4.66 6.32 5 7 C3.68 6.67 2.36 6.34 1 6 C0.67 4.02 0.34 2.04 0 0 Z " fill="#29CDE7" transform="translate(178,295)"/>
<path d="M0 0 C0.66 0.33 1.32 0.66 2 1 C-0.64 3.97 -3.28 6.94 -6 10 C-6 7 -6 7 -4 4 C-3.67 3.01 -3.34 2.02 -3 1 C-2.01 0.67 -1.02 0.34 0 0 Z " fill="#37C5D7" transform="translate(453,266)"/>
<path d="M0 0 C0.66 1.32 1.32 2.64 2 4 C1.2575 4.268125 0.515 4.53625 -0.25 4.8125 C-2.86636554 5.94229421 -4.80187111 7.20893202 -7 9 C-5.44499019 5.18315774 -2.96404505 2.80804268 0 0 Z " fill="#30C7DD" transform="translate(295,224)"/>
<path d="M0 0 C1.32 0 2.64 0 4 0 C4 0.66 4 1.32 4 2 C5.65 1.67 7.3 1.34 9 1 C9.33 1.99 9.66 2.98 10 4 C7.25 4.25 7.25 4.25 4 4 C1.625 2 1.625 2 0 0 Z " fill="#2CC8E3" transform="translate(305,307)"/>
<path d="M0 0 C0.33 0 0.66 0 1 0 C1.33 2.31 1.66 4.62 2 7 C1.01 7.33 0.02 7.66 -1 8 C-1.33 8.99 -1.66 9.98 -2 11 C-1.85892253 9.54119891 -1.71197585 8.08296449 -1.5625 6.625 C-1.48128906 5.81289062 -1.40007812 5.00078125 -1.31640625 4.1640625 C-1 2 -1 2 0 0 Z " fill="#31C7DE" transform="translate(284,239)"/>
<path d="M0 0 C1.99097846 2.98646769 2.94124926 5.59687262 4 9 C3.34 9 2.68 9 2 9 C2 8.34 2 7.68 2 7 C1.01 7 0.02 7 -1 7 C-0.67 4.69 -0.34 2.38 0 0 Z " fill="#32C2DD" transform="translate(147,258)"/>
<path d="M0 0 C0.99 0 1.98 0 3 0 C2.67 1.98 2.34 3.96 2 6 C0.68 5.67 -0.64 5.34 -2 5 C-1.34 3.35 -0.68 1.7 0 0 Z " fill="#20D3F2" transform="translate(315,306)"/>
<path d="M0 0 C0.33 1.32 0.66 2.64 1 4 C0.01 4.495 0.01 4.495 -1 5 C-1 5.99 -1 6.98 -1 8 C-2.32 7.67 -3.64 7.34 -5 7 C-4.34 7 -3.68 7 -3 7 C-2.87625 6.21625 -2.7525 5.4325 -2.625 4.625 C-2 2 -2 2 0 0 Z " fill="#22CADA" transform="translate(309,269)"/>
<path d="M0 0 C2.475 0.495 2.475 0.495 5 1 C3.25 5.875 3.25 5.875 1 7 C0.67 4.69 0.34 2.38 0 0 Z " fill="#2CC6E3" transform="translate(178,262)"/>
<path d="M0 0 C1.8125 0.1875 1.8125 0.1875 4 1 C5.56840126 3.26546849 6.77072645 5.5414529 8 8 C4.20645982 6.50968064 2.3521464 4.27620391 0 1 C0 0.67 0 0.34 0 0 Z " fill="#43C7DC" transform="translate(54,299)"/>
<path d="M0 0 C0 0.99 0 1.98 0 3 C-1.98 3.99 -1.98 3.99 -4 5 C-4 5.66 -4 6.32 -4 7 C-5.32 6.67 -6.64 6.34 -8 6 C-5.36 4.02 -2.72 2.04 0 0 Z " fill="#28C9E5" transform="translate(426,270)"/>
<path d="M0 0 C0.66 0.33 1.32 0.66 2 1 C-0.75 3.0625 -0.75 3.0625 -4 5 C-6.203125 4.62109375 -6.203125 4.62109375 -8 4 C-6.71349294 3.30289269 -5.42059335 2.61757124 -4.125 1.9375 C-3.40570313 1.55464844 -2.68640625 1.17179688 -1.9453125 0.77734375 C-1.30335938 0.52082031 -0.66140625 0.26429688 0 0 Z " fill="#38BDD8" transform="translate(304,219)"/>
<path d="M0 0 C-3.20336822 2.83374881 -5.78087253 3.5205537 -10 4 C-7.93026888 -0.13946223 -4.25879356 -0.23659964 0 0 Z " fill="#34C8DF" transform="translate(282,315)"/>
<path d="M0 0 C0.33 0.66 0.66 1.32 1 2 C1.66 2 2.32 2 3 2 C2.67 3.32 2.34 4.64 2 6 C1.01 6 0.02 6 -1 6 C-1.042721 4.33388095 -1.04063832 2.66617115 -1 1 C-0.67 0.67 -0.34 0.34 0 0 Z " fill="#26C4E0" transform="translate(301,241)"/>
<path d="M0 0 C3.16717283 1.58358642 4.73268318 2.45263699 6.3125 5.6875 C6.539375 6.450625 6.76625 7.21375 7 8 C6.34 8 5.68 8 5 8 C2 4.53846154 2 4.53846154 2 2 C1.34 2 0.68 2 0 2 C0 1.34 0 0.68 0 0 Z " fill="#37CBDB" transform="translate(326,223)"/>
<path d="M0 0 C2 1 2 1 2 1 Z " fill="#FFFFFF" transform="translate(382,242)"/>
<path d="" fill="#FFFFFF" transform="translate(0,0)"/>
<path d="" fill="#FFFFFF" transform="translate(0,0)"/>
<path d="" fill="#FFFFFF" transform="translate(0,0)"/>
<path d="" fill="#FFFFFF" transform="translate(0,0)"/>
<path d="" fill="#FFFFFF" transform="translate(0,0)"/>
<path d="" fill="#FFFFFF" transform="translate(0,0)"/>
<path d="" fill="#FFFFFF" transform="translate(0,0)"/>
<path d="" fill="#FFFFFF" transform="translate(0,0)"/>
<path d="" fill="#FFFFFF" transform="translate(0,0)"/>
<path d="" fill="#FFFFFF" transform="translate(0,0)"/>
<path d="" fill="#FFFFFF" transform="translate(0,0)"/>
<path d="" fill="#FFFFFF" transform="translate(0,0)"/>
<path d="" fill="#FFFFFF" transform="translate(0,0)"/>
<path d="" fill="#FFFFFF" transform="translate(0,0)"/>
<path d="" fill="#FFFFFF" transform="translate(0,0)"/>
<path d="" fill="#FFFFFF" transform="translate(0,0)"/>
<path d="" fill="#FFFFFF" transform="translate(0,0)"/>
<path d="" fill="#FFFFFF" transform="translate(0,0)"/>
<path d="" fill="#FFFFFF" transform="translate(0,0)"/>
<path d="" fill="#FFFFFF" transform="translate(0,0)"/>
<path d="" fill="#FFFFFF" transform="translate(0,0)"/>
<path d="" fill="#FFFFFF" transform="translate(0,0)"/>
<path d="" fill="#FFFFFF" transform="translate(0,0)"/>
<path d="" fill="#FFFFFF" transform="translate(0,0)"/>
<path d="" fill="#FFFFFF" transform="translate(0,0)"/>
<path d="" fill="#FFFFFF" transform="translate(0,0)"/>
<path d="" fill="#FFFFFF" transform="translate(0,0)"/>
<path d="" fill="#FFFFFF" transform="translate(0,0)"/>
<path d="" fill="#FFFFFF" transform="translate(0,0)"/>
<path d="" fill="#FFFFFF" transform="translate(0,0)"/>
<path d="" fill="#FFFFFF" transform="translate(0,0)"/>
<path d="" fill="#FFFFFF" transform="translate(0,0)"/>
<path d="" fill="#FFFFFF" transform="translate(0,0)"/>
<path d="" fill="#FFFFFF" transform="translate(0,0)"/>
<path d="" fill="#FFFFFF" transform="translate(0,0)"/>
<path d="" fill="#FFFFFF" transform="translate(0,0)"/>
<path d="" fill="#FFFFFF" transform="translate(0,0)"/>
<path d="" fill="#FFFFFF" transform="translate(0,0)"/>
<path d="" fill="#FFFFFF" transform="translate(0,0)"/>
<path d="" fill="#FFFFFF" transform="translate(0,0)"/>
<path d="" fill="#FFFFFF" transform="translate(0,0)"/>
<path d="" fill="#FFFFFF" transform="translate(0,0)"/>
<path d="" fill="#FFFFFF" transform="translate(0,0)"/>
<path d="" fill="#FFFFFF" transform="translate(0,0)"/>
<path d="" fill="#FFFFFF" transform="translate(0,0)"/>
<path d="" fill="#FEFFFF" transform="translate(0,0)"/>
<path d="" fill="#FFFFFF" transform="translate(0,0)"/>
<path d="" fill="#FFFFFF" transform="translate(0,0)"/>
<path d="" fill="#FFFFFF" transform="translate(0,0)"/>
<path d="" fill="#FFFFFF" transform="translate(0,0)"/>
<path d="" fill="#FFFFFF" transform="translate(0,0)"/>
<path d="" fill="#FFFFFF" transform="translate(0,0)"/>
<path d="" fill="#FFFFFF" transform="translate(0,0)"/>
<path d="" fill="#FFFFFF" transform="translate(0,0)"/>
<path d="" fill="#FFFFFF" transform="translate(0,0)"/>
<path d="" fill="#FFFFFF" transform="translate(0,0)"/>
<path d="" fill="#FFFFFF" transform="translate(0,0)"/>
<path d="" fill="#FFFFFF" transform="translate(0,0)"/>
<path d="" fill="#FFFFFF" transform="translate(0,0)"/>
<path d="" fill="#FFFFFF" transform="translate(0,0)"/>
<path d="" fill="#FFFFFF" transform="translate(0,0)"/>
<path d="" fill="#FFFFFF" transform="translate(0,0)"/>
<path d="" fill="#FFFFFF" transform="translate(0,0)"/>
<path d="" fill="#FFFFFF" transform="translate(0,0)"/>
<path d="" fill="#FFFFFF" transform="translate(0,0)"/>
<path d="" fill="#FFFFFF" transform="translate(0,0)"/>
<path d="" fill="#FFFFFF" transform="translate(0,0)"/>
<path d="" fill="#FFFFFF" transform="translate(0,0)"/>
<path d="" fill="#FFFFFF" transform="translate(0,0)"/>
<path d="" fill="#FFFFFF" transform="translate(0,0)"/>
<path d="" fill="#FFFFFF" transform="translate(0,0)"/>
<path d="" fill="#FFFFFF" transform="translate(0,0)"/>
<path d="" fill="#FFFFFF" transform="translate(0,0)"/>
<path d="" fill="#FFFFFF" transform="translate(0,0)"/>
<path d="" fill="#FFFFFF" transform="translate(0,0)"/>
<path d="" fill="#FFFFFF" transform="translate(0,0)"/>
<path d="" fill="#FFFFFF" transform="translate(0,0)"/>
<path d="" fill="#FFFFFF" transform="translate(0,0)"/>
<path d="" fill="#FFFFFF" transform="translate(0,0)"/>
<path d="" fill="#FFFFFF" transform="translate(0,0)"/>
<path d="" fill="#FFFFFF" transform="translate(0,0)"/>
<path d="" fill="#FFFFFF" transform="translate(0,0)"/>
<path d="" fill="#FFFFFF" transform="translate(0,0)"/>
<path d="" fill="#FFFFFF" transform="translate(0,0)"/>
<path d="" fill="#FFFFFF" transform="translate(0,0)"/>
<path d="" fill="#FFFFFF" transform="translate(0,0)"/>
<path d="" fill="#FFFFFF" transform="translate(0,0)"/>
<path d="" fill="#FFFFFF" transform="translate(0,0)"/>
<path d="" fill="#FFFFFF" transform="translate(0,0)"/>
<path d="" fill="#FFFFFF" transform="translate(0,0)"/>
</svg>
